<svg width="360" height="90" viewBox="0 0 360 90" fill="none" xmlns="http://www.w3.org/2000/svg">
<mask id="path-1-outside-1_307_3908" maskUnits="userSpaceOnUse" x="0" y="0" width="14" height="90" fill="black">
<rect fill="white" width="14" height="90"/>
<path fill-rule="evenodd" clip-rule="evenodd" d="M9 1C4.58172 1 1 4.58172 1 9V39C4.31371 39 7 41.6863 7 45C7 48.3137 4.31371 51 1 51V81C1 85.4183 4.58172 89 9 89H13V1H9Z"/>
</mask>
<path fill-rule="evenodd" clip-rule="evenodd" d="M9 1C4.58172 1 1 4.58172 1 9V39C4.31371 39 7 41.6863 7 45C7 48.3137 4.31371 51 1 51V81C1 85.4183 4.58172 89 9 89H13V1H9Z" fill="white"/>
<path d="M1 39H0V40H1V39ZM1 51V50H0V51H1ZM13 89V90H14V89H13ZM13 1H14V0H13V1ZM2 9C2 5.134 5.13401 2 9 2V0C4.02944 0 0 4.02943 0 9H2ZM2 39V9H0V39H2ZM1 40C3.76143 40 6 42.2386 6 45H8C8 41.134 4.86599 38 1 38V40ZM6 45C6 47.7614 3.76142 50 1 50V52C4.86599 52 8 48.866 8 45H6ZM2 81V51H0V81H2ZM9 88C5.13401 88 2 84.866 2 81H0C0 85.9706 4.02944 90 9 90V88ZM13 88H9V90H13V88ZM12 1V89H14V1H12ZM9 2H13V0H9V2Z" fill="#E4E4E7" mask="url(#path-1-outside-1_307_3908)"/>
<mask id="path-3-outside-2_307_3908" maskUnits="userSpaceOnUse" x="346" y="0" width="14" height="90" fill="black">
<rect fill="white" x="346" width="14" height="90"/>
<path fill-rule="evenodd" clip-rule="evenodd" d="M351 1C355.418 1 359 4.58172 359 9V39C355.686 39 353 41.6863 353 45C353 48.3137 355.686 51 359 51V81C359 85.4183 355.418 89 351 89H347V1H351Z"/>
</mask>
<path fill-rule="evenodd" clip-rule="evenodd" d="M351 1C355.418 1 359 4.58172 359 9V39C355.686 39 353 41.6863 353 45C353 48.3137 355.686 51 359 51V81C359 85.4183 355.418 89 351 89H347V1H351Z" fill="white"/>
<path d="M359 39H360V40H359V39ZM359 51V50H360V51H359ZM347 89V90H346V89H347ZM347 1H346V0H347V1ZM358 9C358 5.134 354.866 2 351 2V0C355.971 0 360 4.02943 360 9H358ZM358 39V9H360V39H358ZM359 40C356.239 40 354 42.2386 354 45H352C352 41.134 355.134 38 359 38V40ZM354 45C354 47.7614 356.239 50 359 50V52C355.134 52 352 48.866 352 45H354ZM358 81V51H360V81H358ZM351 88C354.866 88 358 84.866 358 81H360C360 85.9706 355.971 90 351 90V88ZM347 88H351V90H347V88ZM348 1V89H346V1H348ZM351 2H347V0H351V2Z" fill="#E4E4E7" mask="url(#path-3-outside-2_307_3908)"/>
<mask id="path-5-outside-3_307_3908" maskUnits="userSpaceOnUse" x="13" y="0" width="334" height="90" fill="black">
<rect fill="white" x="13" width="334" height="90"/>
<path d="M13 1H347V89H13V1Z"/>
</mask>
<path d="M13 1H347V89H13V1Z" fill="white"/>
<path d="M13 2H347V0H13V2ZM347 88H13V90H347V88Z" fill="#E4E4E7" mask="url(#path-5-outside-3_307_3908)"/>
</svg>
