<svg width="125" height="115" viewBox="0 0 125 115" fill="none" xmlns="http://www.w3.org/2000/svg">
<path d="M124.054 51.8617C124.054 86.3716 96.4984 114.346 62.5071 114.346C28.5159 114.346 0.960449 86.3716 0.960449 51.8617C0.960449 35.3972 7.23383 17.1935 17.4874 2.65979C18.6247 1.04771 20.7137 0.412454 22.5528 1.12685C33.5229 5.38201 47.2694 7.91261 62.1947 7.91261C77.12 7.91261 91.2559 5.30911 102.301 0.943566C104.142 0.21667 106.24 0.843593 107.385 2.45776C117.722 17.0228 124.054 35.3181 124.054 51.8596V51.8617Z" fill="#A66E95"/>
<path d="M65.4414 62.7374L64.7578 60.8781H60.8545L60.1846 62.7374H57.9355L61.7773 52.9347H63.7734L67.7383 62.7374H65.4414ZM62.7959 55.5255L61.5176 59.0324H64.0879L62.7959 55.5255Z" fill="white"/>
</svg>
