<svg width="171" height="143" viewBox="0 0 171 143" fill="none" xmlns="http://www.w3.org/2000/svg">
<path d="M9.3411 49.6249H4.29865C1.73889 49.6249 -0.246011 47.4046 0.0247524 44.8594C1.77222 28.372 10.5179 0.470865 15.3187 1.08944C15.3201 1.08944 15.3215 1.08966 15.3228 1.09008L21.6525 3.13267C24.3102 3.99078 25.4432 7.10456 23.9873 9.48728C17.6765 19.8013 14.2232 32.1315 13.6358 45.4947C13.5338 47.8003 11.6488 49.6249 9.3411 49.6249Z" fill="#69729F"/>
<path d="M157.168 45.4968C156.566 31.9482 152.973 19.4639 146.435 9.06449C145.029 6.82756 145.964 3.86582 148.395 2.83067L154.791 0.108458C158.188 -2.02849 169.15 27.9242 170.975 44.8469C171.25 47.3963 169.267 49.6249 166.703 49.6249H161.46C159.153 49.6249 157.268 47.8024 157.166 45.4968H157.168Z" fill="#69729F"/>
<path d="M152.071 119.757L152.671 120.442C154.272 122.271 154.043 125.068 152.158 126.605C144.096 133.185 134.946 138.587 125.001 142.538C122.718 143.447 120.139 142.257 119.344 139.931L119.136 139.323C118.407 137.186 116.151 135.984 113.968 136.559C105.289 138.841 95.7978 140.018 85.6108 140.018C75.4239 140.018 65.341 138.767 56.4329 136.344C54.2418 135.749 51.9674 136.952 51.2342 139.1L51.0614 139.604C50.2657 141.934 47.6727 143.132 45.3899 142.203C35.3842 138.129 26.2011 132.581 18.1407 125.843C16.2891 124.295 16.0745 121.525 17.6658 119.709L18.324 118.957C19.7361 117.345 19.7548 114.929 18.3448 113.315C8.766 102.353 2.51136 88.2274 0.289018 71.3568C-0.0504784 68.7824 1.95526 66.4955 4.5525 66.4955H11.7007C13.6772 66.4955 15.406 67.8431 15.8725 69.7634C18.878 82.1353 24.7952 93.0574 33.5763 101.549C40.3495 108.097 48.8244 113.2 58.9864 116.404C66.8511 118.886 75.7259 120.232 85.6025 120.232C95.4791 120.232 103.746 118.974 111.39 116.649C121.504 113.571 129.949 108.622 136.723 102.238C145.833 93.6573 151.917 82.4789 154.964 69.7718C155.426 67.8473 157.159 66.4955 159.138 66.4955H166.465C169.062 66.4955 171.066 68.7824 170.728 71.3589C168.464 88.6211 162.008 103.007 152.083 114.075C150.64 115.687 150.644 118.128 152.069 119.757H152.071Z" fill="#69729F"/>
<path d="M87.8262 129.426C88.2591 129.649 88.5941 129.966 88.8311 130.376C89.068 130.782 89.1865 131.244 89.1865 131.764C89.1865 132.548 88.8835 133.215 88.2773 133.767C87.6758 134.318 86.9489 134.594 86.0967 134.594H81.9336V124.791H85.9873C86.8304 124.791 87.5322 125.033 88.0928 125.516C88.6533 125.994 88.9336 126.594 88.9336 127.314C88.9336 127.733 88.8356 128.129 88.6396 128.503C88.4437 128.877 88.1725 129.184 87.8262 129.426ZM86.5752 128.401C86.7757 128.205 86.876 127.952 86.876 127.642C86.876 127.332 86.7757 127.081 86.5752 126.89C86.3747 126.698 86.1104 126.603 85.7822 126.603H84.0186V128.688H85.7822C86.1149 128.688 86.3792 128.592 86.5752 128.401ZM85.8984 132.646C86.2448 132.646 86.5228 132.543 86.7324 132.338C86.9466 132.133 87.0537 131.869 87.0537 131.545C87.0537 131.226 86.9466 130.964 86.7324 130.759C86.5228 130.554 86.2448 130.451 85.8984 130.451H84.0186V132.646H85.8984Z" fill="white"/>
</svg>
