<svg width="168" height="143" viewBox="0 0 168 143" fill="none" xmlns="http://www.w3.org/2000/svg">
<path d="M168 37.6902C168 36.4954 167.97 35.3089 167.914 34.1284C167.895 33.7193 167.872 33.3101 167.845 32.903C167.391 25.8532 165.937 19.055 163.615 12.6292C162.318 9.04086 160.751 5.56915 158.936 2.2345C157.845 0.231671 155.318 -0.562098 153.227 0.42602L152.475 0.781988L151.08 1.44073C148.835 2.50046 147.956 5.19477 149.192 7.30807C150.862 10.162 152.303 13.1406 153.495 16.2236C154.364 18.4699 155.1 20.7735 155.696 23.1241C156.882 27.809 157.509 32.6841 157.509 37.6902C157.509 50.9142 153.136 63.2258 145.616 73.5304C132.511 91.4905 109.842 103.36 84.0724 103.36C43.5145 103.36 10.6359 73.958 10.6359 37.6902C10.6359 32.6841 11.2633 27.809 12.4488 23.1241C13.0447 20.7735 13.7811 18.4699 14.6498 16.2236C15.8164 13.202 17.2243 10.2827 18.8524 7.47992C20.126 5.28683 19.142 2.50046 16.7605 1.52052L15.4408 0.978386L14.5617 0.616279C12.4928 -0.234771 10.0925 0.595822 9.04762 2.53524C7.29983 5.77782 5.78704 9.14929 4.53023 12.6292C2.20754 19.055 0.753504 25.8532 0.300296 32.903L0.231052 34.1284C0.174401 35.3089 0.14502 36.4954 0.14502 37.6902C0.14502 52.1498 4.34139 65.6971 11.6599 77.3254C12.816 79.1625 12.346 81.5581 10.5898 82.8674L8.05518 84.7578C6.09128 86.2225 5.79124 88.9844 7.37747 90.8358C9.28472 93.0596 11.3409 95.1974 13.5377 97.2371C15.2415 98.8185 15.3548 101.431 13.779 103.133L10.9129 106.23L16.6766 100.005L13.7287 103.188C12.1362 104.909 12.2537 107.57 14.014 109.127C15.3925 110.347 16.8256 111.529 18.309 112.673L14.7799 116.486L14.4463 116.846C12.7027 118.73 13.0447 121.678 15.1764 123.135C33.0488 135.34 57.329 142.842 84.0724 142.842C110.816 142.842 134.053 135.657 151.81 123.908C153.984 122.47 154.347 119.489 152.589 117.587L151.842 116.781C150.211 115.019 150.386 112.288 152.236 110.75C152.643 110.412 153.046 110.07 153.445 109.725C155.249 108.164 155.413 105.473 153.795 103.726L153.762 103.69C152.171 101.971 152.305 99.3361 154.041 97.7567C155.339 96.5743 156.588 95.3591 157.79 94.1111C158.908 92.9491 159.983 91.7605 161.013 90.5453C162.58 88.6979 162.266 85.9504 160.312 84.4938L157.736 82.5728C155.979 81.2635 155.518 78.874 156.665 77.0328C163.871 65.472 167.998 52.0291 167.998 37.6902H168Z" fill="#567C7A"/>
<path d="M83.7573 127.803C83.0509 127.803 82.3833 127.673 81.7544 127.413C81.13 127.149 80.5946 126.791 80.1479 126.34C79.7013 125.889 79.3481 125.349 79.0884 124.72C78.8286 124.087 78.6987 123.414 78.6987 122.703C78.6987 121.983 78.8286 121.307 79.0884 120.673C79.3481 120.04 79.7013 119.497 80.1479 119.046C80.5946 118.595 81.13 118.24 81.7544 117.98C82.3833 117.715 83.0509 117.583 83.7573 117.583C84.9468 117.583 85.9767 117.943 86.8472 118.663C87.7222 119.383 88.2736 120.325 88.5015 121.487H86.3755C86.1704 120.903 85.8354 120.445 85.3706 120.113C84.9103 119.775 84.3726 119.607 83.7573 119.607C82.9279 119.607 82.2352 119.903 81.6792 120.495C81.1232 121.083 80.8452 121.819 80.8452 122.703C80.8452 123.583 81.1232 124.317 81.6792 124.905C82.2352 125.488 82.9279 125.78 83.7573 125.78C84.3999 125.78 84.9559 125.6 85.4253 125.24C85.8947 124.875 86.2183 124.381 86.396 123.756H88.5356C88.3123 124.968 87.7632 125.946 86.8882 126.689C86.0132 127.432 84.9696 127.803 83.7573 127.803Z" fill="white"/>
</svg>
